# xmcd
#
# Track frame offsets:
#	150
#	14866
#	25159
#	34242
#	46720
#	63954
#	75339
#	89625
#	98810
#	110394
#
# Disc length: 1629 seconds
#
# Revision: 0
# Processed by: cddbd v1.5.2PL0 Copyright (c) Steve Scherf et al.
# Submitted via: audiograbber 1.82.01
#
DISCID=75065b0a
DTITLE=Tom Jones - Your Truly 3 Album
DYEAR=1990
DGENRE=Ballad
TTITLE0=Unchained Melody
TTITLE1=Lady Lay Down
TTITLE2=For Once In My Life
TTITLE3=Passion
TTITLE4=She believes In Me
TTITLE5=Most Beautifull
TTITLE6=Loving Feeling
TTITLE7=Turn on Your Love Light
TTITLE8=Late in The Evening
TTITLE9=Without Love, I Had Nothing
EXTD=Oldies
EXTT0=
EXTT1=
EXTT2=
EXTT3=
EXTT4=
EXTT5=
EXTT6=
EXTT7=
EXTT8=
EXTT9=
PLAYORDER=
